<svg xmlns="http://www.w3.org/2000/svg" viewBox="0 0 600 600">
  <path d="M193 341.4h-35.8v60.1c0 7.2-3.1 11.1-8.8 11.2-5.9.1-9.1-3.8-9.1-11.4v-6H49.9v6.4c0 7.2-3.1 11.1-8.8 11.1-5.8 0-9.1-3.8-9.1-11v-67.1c0-47.5 0-95 .1-142.5 0-2.8.2-6.6 2-8.3 2.2-2.1 6.1-3.5 9.2-3.2 3.9.3 6.3 3.8 6.6 7.9.2 2.9 0 5.9 0 9.2h89.4c0-2.8-.1-5.4 0-7.9.1-5.7 3.6-9.5 8.6-9.6 5.4-.1 9.2 3.6 9.2 9.6.1 19.3 0 38.8 0 58.1 0 1.1.1 2.1.2 3.5H193V154.6c0-26.2 19.7-45.9 45.8-45.9h16.8V65.3c.1-7 3.2-10.3 10.2-10.4 14.2-.1 28.3-.1 42.5 0 6.7 0 9.8 3.2 10 10.1.1 8.4 0 16.7 0 25.4h116.3V65.7c0-7.7 3.1-10.8 10.8-10.8h39.1c10.1 0 12.6 2.5 12.6 12.4v5.3h62.2v18h-61.9v18h14.9c28.4-.1 47.5 19.2 47.5 47.7-.1 93.4-.1 186.7 0 280.1 0 28.8-19 48.1-47.7 48h-14.9v42.9c0 7.7-3.1 10.7-11 10.7h-40.8c-7.7 0-10.8-3-10.8-10.8v-24.5H318.2v23.7c0 8.8-2.9 11.6-11.7 11.6-13.4 0-26.8.1-40.2 0-7.4 0-10.6-3.1-10.6-10.5-.1-14.1 0-28.3 0-43.2h-16.9c-25.8 0-45.7-19.8-45.7-45.5v-91.1l-.1-6.3zM452.7 73.1v446.6h26.5v-43.2c0-7 3.2-10.2 10.3-10.3 8.7-.1 17.6.1 26.3 0 11.1-.2 21.5-7.9 23.7-18.2h-51.1v-17.8h53.1v-17.8h-53v-18h52.9v-18h-53v-17.8h52.9v-18h-52.9v-18h53V305h-53.1v-17.8h53v-18h-52.9v-18h53v-17.8h-52.9v-18h52.9v-18h-53v-17.8h53.1v-17.8h-53v-18.1h51c-1.7-9.2-13.6-17.7-23.7-17.7h-24.6c-9.3 0-12-2.7-12-12V72.7c-9.1.4-17.6.4-26.5.4zM299.8 519.8V73.1h-26.5v42.6c0 7.7-3.1 10.7-10.8 10.7-8.6 0-17.1-.1-25.7.1-11.2.2-21.5 8-23.6 18h50.9v18h-53v17.8h53v18h-52.9v18h53v17.8h-53v17.8h52.9v18h-52.9v18h53v17.8h-52.9v18h52.8v17.8h-52.9v18h53v17.8h-53.1V395h53v18h-52.9v18h53v17.8h-51.4c4.1 10.7 13.4 17.6 24 17.7 8.2.1 16.4 0 24.6 0 9.3 0 12 2.7 12 12V520c9.1-.2 17.6-.2 26.4-.2zm18.6-35.9H434V109H318.4v374.9zM50.2 216.2v160.3h17.2V216.2H50.2zm35.8-.1v160.4h17V216.1H86zm35.7 0v160.3H139V216.1h-17.3zm35.7 53.7v53.1h35.1v-53.1h-35.1z" fill="#911a1d"/>
</svg>
