<svg xmlns="http://www.w3.org/2000/svg" viewBox="0 0 600 600">
  <path d="M2.3 308.6C2.1 312.4 2 324 9.1 332c2.9 3.2 8 7 16.3 7.4.5 4 1.1 8.1 1.9 11.8 3.7 17.1 10.9 24.1 17.8 26.7 2.3 53.7 30.6 58 39.6 58 18.4 0 262.9 1.2 265.3 1.2 3.3 0 6.3-2 7.6-5.1.7-1.7.8-3.4.4-5.1-.2-3.1-.1-15.6.1-26 .1-3.4-2-6.5-5.2-7.8l-6.4-2.5v-17.7c4.5-.5 9.4-1.9 13.4-5.8 4.4-4.3 6.8-10.7 7.5-19.5h25.1v-16.4h-24.8v-2.7h177.2c4.5 0 8.2-3.7 8.2-8.2V295c0-4.5-3.7-8.2-8.2-8.2H367.6V283h14.1v-16.4h-14.1v-4.8c0-7.2-2.9-13.2-8-17.1 19.5.6 43.2.2 62.2-8.1 23.5-10.2 38.8-26 53.6-41.3 26-26.8 48.5-50 111.9-41.3 4.5.6 8.7-2.5 9.3-7s-2.5-8.7-7-9.3c-9.9-1.3-19-2-27.3-2-52 0-75.7 24.5-98.7 48.2-14.4 14.7-27.8 28.7-48.3 37.7-18.6 8.1-43.8 7.1-64 6.4-1.7-.1-3.2-.1-4.8-.1v-3.6l9.6-8.2c1.9-1.7 3-4 2.9-6.5l-.6-21c-.1-4.4-3.8-8-8.2-8H87c-17.2 0-29.3 7.1-35.9 21-4.9 10.2-6.2 23.2-6.4 36-3.7 1.1-7 3.1-9.7 5.9-7.2 7.4-10.1 19.5-11 32.4-8.1.6-12.9 4.3-15.7 7.5-7.2 8.7-6.5 21.3-6 25.2zm367-5.5h167.2v8.9H369.3v-8.9zm-18.1 39.4c0 9.1-1.9 12-2.7 12.8-.5.5-1.1.7-1.9 1v-99.8c4.6 1.1 4.6 3.2 4.6 5.2v80.8zM61.3 244.9c0-36.2 6.3-47.7 25.9-47.7h255.1l.2 9.1-9.5 8.1c-1.9 1.5-2.9 3.8-2.9 6.3v7.4c-4.8.4-8.7 1.1-11.8 2.6-4 2.1-5.6 7.1-3.4 11 2.1 4 7.1 5.6 11 3.4.7-.4 2.1-.6 4-.7v151.7c0 3.3 2 6.4 5.2 7.6l6.3 2.4c0 2.4-.1 5.3-.1 8.2v6.2c-43.8-.2-240.3-1.2-256.8-1.2-14.4 0-23.4-18.5-23.4-48.5V244.9zm-16.3 13v96c-2.4-7.1-4.5-20-4.5-42.8 0-2.7 0-5.8-.1-8.9-.3-13.3-.7-34.5 4.6-44.3zm-24 36.2c.5-.6 1.3-1.2 2.7-1.7 0 3.3.1 6.7.1 9.9.1 3.1.1 6.1.1 8.7 0 3.7 0 7.6.1 11.6-1.5-.4-2.4-1.1-2.9-1.7-2.9-3.1-2.9-9.7-2.6-11.6.1-.7.1-1.4 0-2.1-.3-2.6-.3-9.8 2.5-13.1zm253.6 123.5c20.8 0 37.7-12.6 37.7-28s-16.9-28-37.7-28-37.7 12.6-37.7 28 16.9 28 37.7 28zm0-39.6c12.9 0 21.3 6.9 21.3 11.6s-8.3 11.6-21.3 11.6-21.3-6.9-21.3-11.6 8.3-11.6 21.3-11.6z" fill="#911a1d"/>
</svg>
