<?xml version="1.0" encoding="utf-8"?>
<!-- Generator: Adobe Illustrator 19.2.1, SVG Export Plug-In . SVG Version: 6.00 Build 0)  -->
<svg version="1.1" id="Layer_1" xmlns="http://www.w3.org/2000/svg" xmlns:xlink="http://www.w3.org/1999/xlink" x="0px" y="0px"
	 viewBox="0 0 1080 333.6" style="enable-background:new 0 0 1080 333.6;" xml:space="preserve">
<style type="text/css">
	.st0{fill:#FFFFFF;}
</style>
<path class="st0" d="M478.2,157.5v5c0,2.8-2.3,5-5,5h-28c-2.8,0-5-2.3-5-5v-5c0-2.8,2.3-5,5-5h28
	C475.9,152.5,478.2,154.8,478.2,157.5z M856,227.9l7.8-2.3c0.3-0.1,0.6-0.1,0.8-0.2c-4.5-6.6-11.3-11.6-19.2-13.6
	c0.5,0.8,0.7,1.7,0.7,2.7v8.1c0,3.1-2.5,5.6-5.6,5.6h-8.1c-3.1,0-5.6-2.5-5.6-5.6v-8.1c0-0.8,0.2-1.6,0.5-2.3
	c-6.3,2-11.8,5.8-15.9,10.8c1.2-0.1,2.5,0.2,3.5,0.9l6.7,4.6c2.5,1.7,3.2,5.3,1.4,7.8l-4.6,6.7c-1.7,2.5-5.3,3.2-7.8,1.4l-6.5-4.5
	c-0.1,1.3-0.2,2.5-0.2,3.9c0,6.4,1.9,12.5,5,17.6l4.1-6c1.7-2.6,5.2-3.2,7.8-1.5l6.7,4.6c2.6,1.7,3.2,5.2,1.5,7.8l-4.6,6.7
	c-0.3,0.4-0.6,0.8-1,1.1c4.2,1.9,8.8,2.9,13.6,2.9c3.5,0,6.9-0.6,10.1-1.6c-0.7-0.5-1.3-1.1-1.8-1.9l-4.1-7
	c-1.5-2.7-0.6-6.1,2.1-7.7l7-4.1c2.7-1.5,6.1-0.6,7.7,2.1l4.1,7c0.2,0.4,0.4,0.7,0.5,1.1c4.8-5.7,7.6-13.1,7.6-21.1
	c0-0.1,0-0.1,0-0.2c-0.3,0.2-0.6,0.3-0.9,0.4l-7.8,2.3c-3,0.9-6.1-0.8-7-3.8l-2.3-7.8C851.4,231.9,853.1,228.7,856,227.9z
	 M403.9,65.8c-6,3.5-25.9,29.3-31.7,38.4c-5.8,9.2-0.3,12,4.7,13.3s52.2,13.8,63,14.7c10.8,0.8,213.6-5.3,219.5-6
	c10-1.2,4.3-7,4.3-7C571.5,60.3,567.7,54.5,557,54.5S403.9,65.8,403.9,65.8z M712.4,144.2c-1.4,0.4-2.5,0.7-3.4,1
	c-1.9,0.6-2.9,0.9-2.9,0.9l0.8,2.9c0,0,1-0.3,2.9-0.8c1.9-0.5,4.7-1.2,8.2-2.2c7-2,17-5.1,28.9-8.5c6-1.7,12.5-3.4,19.4-5
	c6.9-1.6,14.3-3,21.9-4.3c1.9-0.3,3.8-0.6,5.8-0.8c1-0.1,1.9-0.3,2.9-0.4c1-0.1,2-0.2,3-0.3c2-0.2,4-0.5,6-0.7c2-0.2,4-0.3,6.1-0.5
	c8.1-0.7,16.4-0.9,24.6-1l1.5,0l1.6,0.1l3.1,0.1c2.1,0.1,4.2,0.1,6.2,0.2c4.1,0.3,8.1,0.7,12.1,1.1c4,0.6,8,1.1,11.9,1.7
	c3.9,0.8,7.8,1.4,11.6,2.2c3.8,0.9,7.5,1.6,11.1,2.6c3.6,1,7.2,1.8,10.6,2.8c3.4,1,6.7,1.9,9.9,2.9c3.2,1,6.3,2,9.2,3
	c5.9,2,11.2,4,15.9,5.8c4.7,1.8,8.8,3.5,12.1,4.9c3.3,1.4,5.9,2.6,7.7,3.4c1.7,0.8,2.7,1.2,2.7,1.2l1.4-2.7c0,0-0.9-0.5-2.7-1.4
	c-1.8-0.9-4.3-2.1-7.7-3.7c-3.3-1.5-7.4-3.3-12.1-5.3c-2.3-1-4.9-2-7.5-3c-2.7-1.1-5.5-2-8.4-3.1c-2.9-1.1-6.1-2.1-9.3-3.2
	c-3.2-1.1-6.6-2.1-10-3.1c-3.4-1.1-7-2-10.7-3c-3.7-1-7.4-1.8-11.3-2.7c-3.8-0.8-7.8-1.5-11.8-2.3c-4-0.7-8.1-1.2-12.2-1.8
	c-4.1-0.4-8.3-0.8-12.5-1.1c-2.1-0.1-4.1-0.1-6.2-0.2l-3.1-0.1l-1.6,0l-0.3,0l-0.2,0l-0.4,0l-0.8,0c-8.4,0.1-16.8,0.4-25,1.1
	c-2.1,0.2-4.1,0.4-6.1,0.5c-2,0.2-4.1,0.5-6.1,0.7c-1,0.1-2,0.2-3,0.4c-1,0.1-2,0.3-3,0.4c-2,0.3-3.9,0.6-5.9,0.9
	c-7.7,1.3-15.2,2.9-22.2,4.6c-7,1.7-13.5,3.6-19.5,5.3c-12,3.6-21.8,7-28.8,9.1C715.3,143.3,713.7,143.8,712.4,144.2z M270.4,232.9
	l7.8-2.3c0.3-0.1,0.6-0.1,0.8-0.2c-4.5-6.6-11.3-11.6-19.2-13.6c0.5,0.8,0.7,1.7,0.7,2.7v8.1c0,3.1-2.5,5.6-5.6,5.6h-8.1
	c-3.1,0-5.6-2.5-5.6-5.6v-8.1c0-0.8,0.2-1.6,0.5-2.3c-6.3,2-11.8,5.8-15.9,10.8c1.2-0.1,2.5,0.2,3.5,0.9l6.7,4.6
	c2.5,1.7,3.2,5.3,1.4,7.8l-4.6,6.7c-1.7,2.5-5.3,3.2-7.8,1.4l-6.5-4.5c-0.1,1.3-0.2,2.5-0.2,3.9c0,6.4,1.9,12.5,5,17.6l4.1-6
	c1.7-2.6,5.2-3.2,7.8-1.5l6.7,4.6c2.6,1.7,3.2,5.2,1.5,7.8l-4.6,6.7c-0.3,0.4-0.6,0.8-1,1.1c4.2,1.9,8.8,2.9,13.6,2.9
	c3.5,0,6.9-0.6,10.1-1.6c-0.7-0.5-1.3-1.1-1.8-1.9l-4.1-7c-1.5-2.7-0.6-6.1,2.1-7.7l7-4.1c2.7-1.5,6.1-0.6,7.7,2.1l4.1,7
	c0.2,0.4,0.4,0.7,0.5,1.1c4.8-5.7,7.6-13.1,7.6-21.1c0-0.1,0-0.1,0-0.2c-0.3,0.2-0.6,0.3-0.9,0.4l-7.8,2.3c-3,0.9-6.1-0.8-7-3.8
	l-2.3-7.8C265.7,236.9,267.4,233.7,270.4,232.9z M1039.4,208.1c-3,2.4-21,8.7-27.2,10.8l0.7,19.4l-49.8-2.4
	c-15.5,4.9-30.2,9.5-38.1,7.1c-0.1,0.2-0.4,0.2-0.9,0.2c-2.4-0.1-12.1-4.7-18.1-7.6c0.3,2.6,0.5,5.2,0.5,7.9
	c0,38.4-31.1,69.5-69.5,69.5c-32.8,0-60.2-22.7-67.6-53.2c-2.1,0.6-5.2,1.3-8.2,1.1c-0.1,1-1.1,2.9-8.7,5.5l-0.3,0.1l-0.3,0
	l-424.2,3.7l0.1-0.2c-3.2,0.1-7.8,0.3-11.4,0.2C306.6,297,281,316,251,316c-32.9,0-60.5-22.9-67.7-53.7c-3.1-0.5-7.6-2.2-9.5-3
	c-0.8,1.2-2.2,2-4.3,2.4c-10.7,2.1-65.7-0.7-72.7-4.5c-6.6-3.7-22.1-14.9-26.8-19.3c-4.8-4.6-18.2-25.3-20.4-30.6
	c-2.4-5.5,4.9-11.2,8-13.4c-1.3-13.8,10.4-32.3,12.8-35.9l-2.9-41.4l28.3,13.1c4.3-1.6,25-8.9,48.6-12.1
	c33.3-4.2,79.4-19.4,112.2-31.5c38.4-14.1,66.9-26.9,69.2-28.8c4.3-3.6,6.5-3.2,10-2.4c1.4,0.3,2.9,0.7,5.1,0.9
	c7.2,0.6,35.1-3.2,43-5.3c8.6-2.3,163.8-11.8,177.1-12.4c13.9-0.6,23.6,1.2,32.4,6.3c15.4,8.8,65.9,40.1,66.4,40.4
	c3.9,2.3,37.5,22.1,39.9,23.6c0.5,0.1,1.8,0,3-0.2l0.2,0l0.3,0c10.7,0.6,13.3-4.9,13.4-5.1l0.5-1.2l1.3-0.1
	c16.4-0.3,95.8,6.1,99.2,6.3c1.1,0.1,111.9,10.1,150.9,18c39.7,8.1,50.8,12.2,60.6,15.7c8.4,3.1,9.3,5.1,10.6,9.8
	c0.3,1.2,0.7,2.5,1.3,4.1c2.8,7.3,2.5,21.5,2.5,23.8C1046.3,190.8,1043.6,204.8,1039.4,208.1z M717.3,125.1
	c-1.2,2.2-2.9,4.4-5.2,5.7c-1.2,0.7-2.4,1.1-3.7,1.4l-1,0.1c-0.3,0-0.6,0-0.9,0.1l-0.5,0l-0.4,0l-0.9,0l-7,0l-14-0.1l-14-0.1l-7,0
	c-2.3,0-4.7,0.1-7,0.1l-28,0.5l-56.1,1.2l-28,0.7c-9.3,0.2-18.7,0.4-28,0.8l-7,0.2l-7,0.3l-14,0.6c-4.7,0.2-9.3,0.4-14,0.5l-14,0.5
	l-7,0.2l-3.5,0.1l-1.8,0.1c-0.7,0-1.3,0-1.9-0.1c-2.7-0.3-5.4-0.6-8-1c-3.5,9.1-5.1,25.1-5.5,42.7l569.1-10.5
	c-2.2-7-10.2-29.3-9-33.8c-6.6-1.5-14.4-3.2-23.9-5.2c-38.8-7.9-149.3-17.9-150.4-18c-0.8-0.1-77.6-6.2-97.1-6.3
	c0.4,4.1,0.2,8.2-0.5,12.3C719.2,120.5,718.5,122.9,717.3,125.1z M578.5,46c-1,0.5-1.9,1.2-2.8,2c-0.8,0.8-1.6,1.7-2.3,2.7
	c-0.3,0.5-0.7,1-1,1.5l-0.4,0.8c-0.1,0.3-0.3,0.6-0.4,0.8l-0.7,1.7l-1.5-1.1l-4.4-3.1l-0.5-0.4l-0.3-0.2l0,0c0,0-0.1,0-0.1,0l0,0
	c0.1,0,0,0-0.1,0c-0.1,0-0.2,0-0.2,0c-0.2,0-0.4-0.1-0.6-0.1c-0.8-0.1-1.7-0.1-2.5-0.1c-3.5-0.1-7.1,0.1-10.6,0.2
	c-7.1,0.3-14.3,0.8-21.4,1.3c-14.3,1-28.6,2.3-42.9,3.5c-28.4,2.5-56.7,5.2-85,8c-6.1,6.8-12.1,13.7-17.9,20.7
	c-3,3.6-6,7.2-8.9,10.8c-2.9,3.6-5.8,7.3-8.2,11.2c-1.2,1.9-2.3,3.9-2.8,5.9c-0.3,1-0.3,1.8,0,2.6c0.3,0.7,0.9,1.4,1.7,2.1
	c0.8,0.7,1.8,1.3,2.7,1.9l0.7,0.5l0.2,0.1c0,0,0,0,0.1,0l0.1,0c0.1,0.1,0.3,0.2,0.3,0.2c0.3,0.2,0.9,0.4,1.4,0.6
	c2.1,0.8,4.3,1.4,6.6,2c9,2.3,18.1,4.2,27.3,6c9.2,1.8,18.4,3.5,27.6,5c4.6,0.7,9.2,1.5,13.8,1.9c0.6,0,1.1,0.1,1.6,0.1l1.8-0.1
	l3.5-0.1l7-0.2c4.7-0.1,9.3-0.2,14-0.3c4.7-0.1,9.4-0.2,14-0.2l14-0.1l7-0.1l7-0.1c9.4-0.2,18.7-0.5,28-0.7l28-0.8l56.1-1.7l28-0.8
	c2.3,0,4.7-0.2,7-0.2l7,0l14-0.1l14-0.1l7,0l0.9,0l0.4,0l0.4,0c0.3,0,0.6,0,0.8-0.1l0.7-0.1c1-0.2,1.9-0.6,2.8-1.1
	c1.7-1,3.1-2.7,4-4.6c1-1.9,1.6-4,2.1-6.2c0.6-3,0.8-6.1,0.7-9.2c-2.4,2-6.6,4.1-13.6,3.9c-2.7,2-11.2,7.7-19.6,9.6
	c-10.3,2.3-14.3-1.3-14.3-1.3s-98-63-96.5-65.8c1.1-2.1,6.9-7.6,10.4-10.2c-0.8-0.3-1.6-0.5-2.4-0.7l0.2,1.2c-0.3,0-0.7,0.1-0.9,0.1
	c-0.2,0-0.5,0.1-0.8,0.2C579.5,45.5,579,45.7,578.5,46z M76.3,234.5c0.6-0.1,1.1-0.2,1.7-0.3c0.3-0.1,0.5-0.2,0.8-0.2
	c0.1,0,0.2-0.1,0.3-0.1c0.1-0.1,0.2-0.1,0.3-0.1c0-0.1,0.1-0.1,0.2-0.1c0,0,0-0.1,0-0.1c-0.1,0-0.1,0-0.1-0.2c0-0.1,0.1-0.6,0.3-1.1
	c0.1-0.3,0.2-0.5,0.4-1c0.1-0.2,0.2-0.4,0.4-0.6l0-0.1c0,0,0,0,0,0l0-0.1c0-0.3,0-0.7,0-1.1c0-1.7-0.2-3.7-0.4-5.8
	c-0.4-4.1-0.9-8.6-1.4-13.1c-0.3-2.2-0.5-4.5-0.8-6.7c-0.3-2.2-0.6-4.3-0.9-6.3c-2.1,0.4-3.9,0.5-5.6,0.5c-1.8,0-3.5-0.2-4.9-0.3
	c-1.4-0.1-2.7-0.4-3.7-0.6c-0.8-0.1-1.5-0.3-2-0.4c-3.8,2.4-8.4,6.9-7.5,9.1c2.1,4.8,14.8,24.6,19.4,29.2c0.5,0,1.2-0.1,2-0.2
	C75.2,234.7,75.7,234.6,76.3,234.5z M79.5,196.8c0,0,0.1,0,0.1,0C79.6,196.8,79.6,196.8,79.5,196.8l-0.2,0L79.5,196.8z M289.3,249
	c0-21.2-17.3-38.5-38.5-38.5s-38.5,17.3-38.5,38.5s17.3,38.5,38.5,38.5S289.3,270.2,289.3,249z M335.1,254.5
	c35.3-0.3,68.3-0.6,98.8-0.9c-2.8-11.7-5.7-42.6-5.4-71l-24,0.4l-0.1,0c-0.5,0-52.9-4.8-87.9-6l-5.9-0.2
	c-43.2-1.6-157.8-5.8-228.7,12.7l-0.8-2.9c71.3-18.6,186.3-14.4,229.6-12.8l5.9,0.2c34.5,1.2,85.6,5.8,88,6l24-0.4
	c0.3-17.3,1.9-33.4,5.5-43.2c-1-0.2-2-0.3-3-0.5c-9.3-1.5-18.5-3.2-27.7-5c-9.2-1.8-18.4-3.7-27.5-6c-2.3-0.6-4.6-1.2-6.9-2.1
	c-0.6-0.2-1.1-0.4-1.8-0.8c-0.2-0.1-0.3-0.2-0.4-0.2l-0.2-0.1l-0.2-0.1l-0.7-0.5c-1-0.6-2-1.3-3-2.1c-1-0.8-2-1.9-2.6-3.3
	c-0.6-1.5-0.4-3.1-0.1-4.3c0.7-2.6,2-4.7,3.2-6.7c2.6-4.1,5.5-7.8,8.4-11.5c2.9-3.7,5.9-7.3,8.9-10.9c6-7.2,12.2-14.2,18.4-21.3
	l0.4-0.4l0.6-0.1c28.5-2.9,57.1-5.6,85.7-8.2c14.3-1.3,28.6-2.4,42.9-3.4c7.2-0.5,14.3-0.9,21.5-1.3c3.6-0.1,7.2-0.3,10.9-0.2
	c0.9,0,1.8,0.1,2.8,0.2c0.2,0,0.5,0.1,0.8,0.1c0.1,0,0.3,0,0.4,0.1c0.2,0,0.3,0.1,0.6,0.2l0.2,0.1l0.1,0l0.1,0l0.2,0.1l0,0l0.3,0.2
	l0.5,0.4l2.9,2.1c0-0.1,0.1-0.1,0.1-0.2c0.3-0.6,0.7-1.2,1.1-1.8c0.8-1.1,1.7-2.2,2.7-3.2c1-1,2.2-1.9,3.5-2.5
	c0.2-0.1,0.5-0.2,0.7-0.3c-4.8-0.9-10.1-1.1-16.5-0.8C546.8,42.8,392.7,52.4,385,54.5c-8.3,2.2-36.6,6.1-44.4,5.4
	c-2.5-0.2-4.3-0.7-5.7-1c-2.8-0.7-3.5-0.9-6.5,1.6c-6.1,5-120.3,53.2-183.4,61.1c-25.9,3.6-48.3,12.1-48.5,12.2l-0.8,0.3l-23.7-10.9
	l2.1,30.1c1.5-2.1,3.4-4.6,5.5-7c1.2-1.4,2.4-2.7,3.7-3.8c0.6-0.6,1.2-1.1,1.9-1.6c0.6-0.5,1.2-0.9,1.7-1.3c1.1-0.8,2.1-1.4,2.7-1.8
	c0.7-0.4,1-0.6,1-0.6l0.6,0.8c0,0-0.4,0.3-1,0.7c-0.6,0.5-1.5,1.1-2.5,2c-0.5,0.4-1,0.9-1.6,1.4c-0.5,0.5-1.1,1.1-1.6,1.7
	c-1.1,1.2-2.2,2.6-3.2,4c-2,2.8-3.9,5.8-5.2,8c-0.7,1.1-1.2,2.1-1.6,2.7c0,0.1-0.1,0.1-0.1,0.1l0,0.5l-0.4,0.6
	c-0.1,0.2-13.6,20-12.5,33.6c0.4,0,0.9-0.1,1.5-0.1c1-0.1,2.2-0.2,3.5-0.3c1.4-0.1,2.9-0.3,4.5-0.5c1.6-0.2,3.3-0.6,4.8-1.2
	c0.4-0.1,0.8-0.3,1.2-0.5l0.4-0.1c-0.1-0.6-0.1-1.1-0.1-1.7c0-0.9,0-1.7,0.1-2.6c0.1-0.4,0.1-0.9,0.2-1.3c0-0.2,0.1-0.5,0.2-0.7
	c0.1-0.2,0.1-0.4,0.2-0.6c1.7-6.3,3.8-12.5,6.9-18.3c1.5-2.9,3.3-5.8,5.4-8.4c2.1-2.6,4.5-5,7.1-7.1c5.3-4.2,11.6-6.9,17.8-8.8
	c6.3-1.9,12.7-3.2,19.1-4.4l19.1-3.4c3.2-0.6,6.3-1.1,9.5-1.8l9.6-1.6l9.6-1.5c3.2-0.5,6.4-0.9,9.6-1.4c6.4-0.9,12.8-1.7,19.3-2.3
	c25.8-2.7,51.8-3.7,77.7-1.5c12.9,1.1,25.8,3,38.5,5.6c12.7,2.6,25.3,5.9,37.7,9.4l-0.8,2.9c-6.2-1.7-12.5-3.3-18.7-4.9
	c-6.3-1.5-12.5-2.9-18.8-4.2c-12.6-2.5-25.3-4.4-38.2-5.4c-25.6-2.1-51.4-1-77,1.7c-6.4,0.7-12.8,1.4-19.2,2.3
	c-3.2,0.4-6.4,0.9-9.6,1.3l-9.6,1.4l-9.5,1.6c-3.2,0.6-6.4,1.2-9.6,1.7l-19.1,3.3c-6.3,1.2-12.6,2.4-18.7,4.2
	c-6.1,1.8-11.9,4.4-16.8,8.2c-4.9,3.8-8.7,8.8-11.7,14.4c-2.9,5.6-5,11.6-6.8,17.8l-0.4,1.3l0.3-1c0,0-0.1,0.2-0.1,0.3
	c0,0.2-0.1,0.3-0.1,0.5c-0.1,0.3-0.1,0.7-0.2,1c-0.1,0.7-0.1,1.4-0.1,2.2c0,0.5,0.1,1.1,0.1,1.6c0.4,0.1,0.9,0.3,0.4,0.1l0,0
	c-0.1,0,0.3,0.1,0.5,0.3c0.2,0.1,0.4,0.3,0.6,0.5c0.1,0.1,0.2,0.2,0.3,0.3l0.1,0.2l0.1,0.2l0.2,0.3l0.2,0.4c0.1,0.2,0.2,0.4,0.2,0.6
	c0.1,0.4,0.2,0.7,0.3,1c0.2,0.6,0.3,1.1,0.5,1.7c0.1,0.2,0.1,0.4,0.2,0.7c0.8-0.9,2-1.5,3.3-1.5h23c2.5,0,4.5,2,4.5,4.5
	c0,2.5-2,4.5-4.5,4.5h-23c-0.7,0-1.3-0.2-1.9-0.4c0.3,1.9,0.6,3.9,0.9,5.9c0.3,2.3,0.6,4.6,0.8,6.9c0.2,2.3,0.3,4.5,0.4,6.8
	c0,2.2,0,4.4-0.2,6.6c-0.1,0.6-0.1,1.1-0.3,1.8c0,0.2-0.1,0.3-0.1,0.6l-0.1,0.3l-0.1,0.4c0,0.1-0.1,0.3-0.2,0.5l-0.1,0.2
	c-0.1,0.1-0.2,0.2-0.2,0.4L86,234l-0.1,0.1c0.1-0.1-0.2,0.3,0.1-0.1L86,234l-0.1,0.1l-0.2,0.3c0,0,0,0,0,0c0-0.1-0.1,0.1-0.1,0.2
	c-0.2,0.3-0.3,0.7-0.7,1.3c-0.1,0.3-0.4,0.6-0.6,1c-0.2,0.3-0.6,0.6-0.9,0.9c-0.3,0.2-0.7,0.4-1,0.6c-0.3,0.1-0.6,0.3-0.9,0.4
	c-1.2,0.3-2.1,0.4-2.9,0.4c-0.3,0-0.5,0-0.8,0c6.4,5,16.3,12,21.1,14.6c5.5,3.1,59.2,6.2,70,4.1c2.4-0.5,2.6-1.2,2-7.5
	c-0.7-7.2-1.9-19.3,6.7-35.8c15.6-29.9,46.6-34.1,71.9-34.4c0.4,0,0.8,0,1.2,0c31.8,0,58.2,16.3,69.4,31.7
	C328.3,223,334.6,240.5,335.1,254.5z M81.1,229.9L81.1,229.9l-0.1,0.1c-0.1,0.1-0.1,0.1-0.1,0.2l-0.1,0.1c0,0-0.1,0.1-0.1,0.1
	l0.1-0.2l0.1-0.1l0-0.1C81.3,229.7,81,230,81.1,229.9z M813.3,175.5l-381.7,7c-0.3,28.3,2.4,59.5,5.4,71
	c211.8-2.2,309.7-4.5,310.8-4.5l0.1,5c-1.3,0-130.2,3-412.9,5.5c-0.2,2.4-0.6,4.6-1.2,6.7l417.7-3.6c1.5-0.5,3.1-1.2,4.2-1.8
	c-6.2-3.7-6.8-13.1-1.8-28.5C760.3,212.7,780.9,183.3,813.3,175.5z M875,244c0-21.2-17.3-38.5-38.5-38.5S798,222.8,798,244
	s17.3,38.5,38.5,38.5S875,265.2,875,244z M1039.3,200.1c-1.9,0-3.7-0.2-5.5-0.3c-1.8-0.1-3.9-0.2-5.9-0.9c-2-0.7-3.8-1.8-5.3-3.2
	c-1.5-1.4-2.7-3.1-3.6-4.9c-0.9-1.8-1.6-3.6-2.1-5.5c-0.5-1.9-0.9-3.7-1.2-5.6c-0.3-1.9-0.5-3.7-0.7-5.6c-0.1-1-0.1-2.2,0.4-3.4
	c0.1-0.1,0.1-0.3,0.2-0.4c-0.5,0.1-0.9,0.1-1.4,0.2c-6.8,1.1-10.1,1.5-11.7,1.2l0,0.3l-143.9,2.6c18.1,2.8,33.4,9.3,43,18.8
	c14.5,14.3,21.9,28.5,21.6,41.1c-0.1,2.4,0.8,3.3,1.4,3.8c5.1,3.8,22.4-1.6,37.6-6.5l0.3-0.1l0.4,0l0.1,0l-0.2-0.7
	c0,0,0.6-0.2,1.6-0.5c1-0.3,2.5-0.7,4.3-1.3c3.5-1.1,8.3-2.5,13-4.1c4.7-1.6,9.3-3.3,12.8-4.6c3.5-1.3,5.7-2.3,5.7-2.3l0.4,0.9
	c0,0-2.2,1.2-5.6,2.8c-3.4,1.6-7.9,3.7-12.5,5.7c-3.9,1.7-7.8,3.3-11,4.5l37.1,1.8l-0.6-18l1.4-0.5c9.5-3.2,25.3-9,27.4-10.7
	C1037.7,204.4,1038.6,202.6,1039.3,200.1z M1040.6,192.4l-0.2-1.8l-1.4-11.1l0-0.1l0-0.1l0.5-3.6c0-1.5-0.1-3.2-0.2-5.1
	c-3.2-0.1-6.5-0.3-9.7-0.5c-1.9-0.1-3.7-0.2-5.5-0.2c-1.8,0-3.7,0.1-5,0.6c-0.7,0.3-1.1,0.7-1.3,1.2c-0.2,0.5-0.2,1.3-0.1,2.1
	c0.3,1.8,0.5,3.7,0.9,5.4c0.7,3.6,1.5,7.1,3.2,10.2c0.8,1.5,1.8,2.9,3,4.1c1.2,1.2,2.6,2,4.2,2.6c1.6,0.6,3.2,0.6,5.1,0.8l5.5,0.6
	c0.1,0,0.2,0,0.3,0C1040.2,196,1040.5,194.2,1040.6,192.4z"/>
</svg>
