<?xml version="1.0" encoding="utf-8"?>
<!-- Generator: Adobe Illustrator 19.2.1, SVG Export Plug-In . SVG Version: 6.00 Build 0)  -->
<svg version="1.1" id="Layer_1" xmlns="http://www.w3.org/2000/svg" xmlns:xlink="http://www.w3.org/1999/xlink" x="0px" y="0px"
	 viewBox="0 0 450.3 44" style="enable-background:new 0 0 450.3 44;" xml:space="preserve">
<style type="text/css">
	.st0{fill:#FFFFFF;}
</style>
<path class="st0" d="M-123.2-235c-19.5,0-35.4,15.9-35.4,35.4s15.9,35.4,35.4,35.4s35.4-15.9,35.4-35.4S-103.8-235-123.2-235z
	 M-119.7-227.7c12.8,1.6,22.9,11.8,24.5,24.5h-24.5V-227.7z M-151.5-199.7c0-14.4,10.9-26.3,24.8-28.1v56.1
	C-140.7-173.3-151.5-185.3-151.5-199.7z M-119.7-171.6v-24.5h24.5C-96.8-183.3-106.9-173.2-119.7-171.6z"/>
<path class="st0" d="M-51.5-237h8.9v30.5h0.2c1.4-2.5,3.6-4.7,6.4-6.3c2.6-1.5,5.8-2.5,9.1-2.5c6.6,0,17.1,4,17.1,20.9v29.1h-8.9
	v-28.1c0-7.9-2.9-14.5-11.3-14.5c-5.8,0-10.3,4-11.9,8.9c-0.5,1.2-0.6,2.5-0.6,4.2v29.5h-8.9L-51.5-237L-51.5-237z"/>
<path class="st0" d="M6.5-214.2l10.7,28.9c1.1,3.2,2.3,7.1,3.1,10h0.2c0.9-2.9,1.9-6.7,3.1-10.2l9.7-28.7h9.4l-13.3,34.8
	C23-162.6,18.7-154,12.6-148.7c-4.3,3.8-8.7,5.4-10.9,5.8l-2.2-7.5c2.2-0.7,5.2-2.1,7.8-4.3c2.4-1.9,5.5-5.4,7.5-9.9
	c0.4-0.9,0.7-1.6,0.7-2.1s-0.2-1.2-0.6-2.3l-18.1-45L6.5-214.2L6.5-214.2z"/>
<path class="st0" d="M92-237v59.1c0,4.3,0.1,9.3,0.4,12.6h-8l-0.4-8.5h-0.2c-2.7,5.5-8.7,9.6-16.7,9.6c-11.8,0-20.9-10-20.9-24.8
	c-0.1-16.3,10-26.3,21.9-26.3c7.5,0,12.5,3.5,14.7,7.5h0.2V-237H92z M83.1-194.3c0-1.1-0.1-2.6-0.4-3.7c-1.3-5.7-6.2-10.3-12.8-10.3
	c-9.2,0-14.6,8.1-14.6,18.9c0,9.9,4.8,18.1,14.4,18.1c6,0,11.4-3.9,13-10.6c0.3-1.2,0.4-2.4,0.4-3.8L83.1-194.3L83.1-194.3z"/>
<path class="st0" d="M106.8-198.9c0-5.8-0.1-10.7-0.4-15.3h7.8l0.3,9.6h0.4c2.2-6.6,7.6-10.7,13.5-10.7c1,0,1.7,0.1,2.5,0.3v8.4
	c-0.9-0.2-1.8-0.3-3-0.3c-6.3,0-10.7,4.7-11.9,11.4c-0.2,1.2-0.4,2.6-0.4,4.1v26.1h-8.8L106.8-198.9L106.8-198.9z"/>
<path class="st0" d="M166.4-165.3l-0.7-6.2h-0.3c-2.7,3.8-8,7.3-14.9,7.3c-9.9,0-14.9-7-14.9-14c0-11.8,10.5-18.3,29.4-18.2v-1
	c0-4-1.1-11.3-11.1-11.3c-4.5,0-9.3,1.4-12.7,3.6l-2-5.9c4-2.6,9.9-4.3,16.1-4.3c14.9,0,18.6,10.2,18.6,20v18.3
	c0,4.2,0.2,8.4,0.8,11.7L166.4-165.3L166.4-165.3z M165-190.2c-9.7-0.2-20.7,1.5-20.7,11c0,5.8,3.8,8.5,8.4,8.5
	c6.4,0,10.4-4,11.8-8.2c0.3-0.9,0.5-1.9,0.5-2.8V-190.2z"/>
<path class="st0" d="M40.3,4.4h-3H5L4.8,39.9L37.3,7.4v32.7h16.9V4.4H40.3z M8.8,30.4l0.2-22h21.8L8.8,30.4z M50.3,36.2h-9.1V8.4
	h9.1V36.2z"/>
<g>
	<path class="st0" d="M67.3,8.6V5.3h18.3v3.3h-7.5v30.2h-3.4V8.6H67.3z"/>
	<path class="st0" d="M90.4,5.3h3.3v14h17.1v-14h3.3v33.5h-3.3V22.6H93.8v16.2h-3.3V5.3z"/>
	<path class="st0" d="M122.3,5.3h19.2v3.3h-15.8v10.5h15.7v3.3h-15.7v13.2h15.7v3.3h-19.1V5.3z"/>
	<path class="st0" d="M170.2,5.3h6.5l12.9,33.5h-6.6l-2.6-6.9h-13.7l-2.7,6.9h-6.6L170.2,5.3z M173.5,14.2L169,25.7h9L173.5,14.2z"
		/>
	<path class="st0" d="M197.7,5.3h6.2l7.8,23.4l7.8-23.4h6.2l5.6,33.5h-6.2l-3.6-21.1l-7.1,21.1h-5.6l-7.1-21.1l-3.7,21.1h-6.2
		L197.7,5.3z"/>
	<path class="st0" d="M267.2,11.2l-4.5,4.3c-3-3.2-6.4-4.8-10.2-4.8c-3.2,0-5.9,1.1-8.1,3.3c-2.2,2.2-3.3,4.9-3.3,8.1
		c0,2.2,0.5,4.2,1.5,5.9c1,1.7,2.3,3.1,4.1,4.1c1.8,1,3.7,1.5,5.9,1.5c1.8,0,3.5-0.3,5.1-1c1.5-0.7,3.2-1.9,5-3.8l4.3,4.5
		c-2.5,2.4-4.8,4.1-7,5c-2.2,0.9-4.7,1.4-7.5,1.4c-5.2,0-9.5-1.7-12.8-5c-3.3-3.3-5-7.5-5-12.7c0-3.3,0.8-6.3,2.3-8.9
		c1.5-2.6,3.7-4.7,6.5-6.3c2.8-1.6,5.8-2.4,9.1-2.4c2.8,0,5.4,0.6,8,1.7C263.1,7.4,265.3,9,267.2,11.2z"/>
	<path class="st0" d="M285.9,5.3h6.7c3.8,0,6.4,0.2,7.7,0.5c1.9,0.5,3.5,1.4,4.7,2.9c1.2,1.5,1.8,3.3,1.8,5.5c0,2.2-0.6,4.1-1.8,5.5
		c-1.2,1.5-2.8,2.4-4.9,2.9c-1.5,0.4-4.4,0.5-8.5,0.5h-2.4v15.6h-3.3V5.3z M289.3,8.6v11.4l5.7,0.1c2.3,0,4-0.2,5-0.6
		c1.1-0.4,1.9-1.1,2.5-2c0.6-0.9,0.9-2,0.9-3.1c0-1.1-0.3-2.1-0.9-3.1c-0.6-0.9-1.4-1.6-2.4-2c-1-0.4-2.6-0.6-4.9-0.6H289.3z"/>
	<path class="st0" d="M327.2,5.3l15.6,33.5h-3.6l-5.3-11h-14.4l-5.2,11h-3.7l15.8-33.5H327.2z M326.8,12.4L321,24.5h11.4L326.8,12.4
		z"/>
	<path class="st0" d="M380.3,10.9l-2.6,2.5c-1.9-1.8-3.9-3.2-6.1-4.2s-4.4-1.4-6.5-1.4c-2.6,0-5.1,0.6-7.5,1.9
		c-2.4,1.3-4.2,3-5.5,5.2c-1.3,2.2-2,4.5-2,7c0,2.5,0.7,4.9,2,7.2c1.3,2.3,3.2,4.1,5.6,5.4c2.4,1.3,5,1.9,7.8,1.9
		c3.4,0,6.4-1,8.7-2.9c2.4-1.9,3.8-4.5,4.2-7.6h-10.7v-3.2h14.4c0,5.2-1.6,9.3-4.6,12.3c-3,3-7.1,4.6-12.2,4.6
		c-6.2,0-11.1-2.1-14.7-6.3c-2.8-3.2-4.2-7-4.2-11.3c0-3.2,0.8-6.1,2.4-8.9c1.6-2.7,3.8-4.9,6.6-6.4c2.8-1.5,5.9-2.3,9.4-2.3
		c2.8,0,5.5,0.5,8,1.5C375.5,7,377.9,8.7,380.3,10.9z"/>
	<path class="st0" d="M388.7,5.3h19.2v3.3H392v10.5h15.7v3.3H392v13.2h15.7v3.3h-19.1V5.3z"/>
	<path class="st0" d="M410.2,32.5l2.8-1.7c2,3.7,4.3,5.5,6.9,5.5c1.1,0,2.2-0.3,3.2-0.8c1-0.5,1.7-1.2,2.3-2.1
		c0.5-0.9,0.8-1.8,0.8-2.8c0-1.1-0.4-2.2-1.1-3.3c-1-1.5-3-3.3-5.7-5.4c-2.8-2.1-4.5-3.6-5.2-4.6c-1.2-1.6-1.8-3.3-1.8-5.1
		c0-1.5,0.3-2.8,1-4c0.7-1.2,1.7-2.1,2.9-2.8c1.3-0.7,2.6-1,4.1-1c1.6,0,3.1,0.4,4.4,1.2c1.4,0.8,2.8,2.2,4.4,4.3l-2.7,2.1
		c-1.3-1.7-2.3-2.8-3.2-3.3c-0.9-0.5-1.9-0.8-2.9-0.8c-1.4,0-2.5,0.4-3.3,1.2c-0.9,0.8-1.3,1.8-1.3,3c0,0.7,0.2,1.4,0.5,2.1
		s0.9,1.4,1.7,2.2c0.4,0.4,1.9,1.5,4.3,3.3c2.9,2.1,4.9,4,6,5.7c1.1,1.7,1.6,3.3,1.6,5c0,2.4-0.9,4.5-2.8,6.3
		c-1.8,1.8-4.1,2.7-6.7,2.7c-2,0-3.9-0.5-5.5-1.6C413.1,36.9,411.6,35.1,410.2,32.5z"/>
</g>
</svg>
