<svg xmlns="http://www.w3.org/2000/svg" viewBox="0 0 600 600">
  <path d="M16.5 264.4c2.3-2.3 4.4-4.9 7.1-6.9 20.2-14.6 40.4-29.1 60.8-43.4 2.9-2 7-3.4 10.5-3.4 22.5-.3 45.1-.2 67.6-.1 2.9 0 5.9.1 5.3-4.1-1.4-11.4 4.2-16.1 15.4-14.8.9.1 1.8-.2 3.5-.4v-15.8c0-19.2 0-38.4.1-57.6 0-2 .2-4.2 1.1-5.9 1.9-3.9 5.3-5.5 9.6-4.9 4.7.7 7.3 3.5 7.9 8 .4 3.2.1 6.5.1 10.7H251.2c7.6 0 11.1 3.4 11.1 11.2 0 11.3.1 22.5 0 33.8 0 8.3-3.4 11.6-12 11.6h-44.4v9h75.3v-6.8V81.1c0-1.1 0-2.2.1-3.3.6-5.2 4.5-8.9 9.6-8.7 4.8.1 8.7 3.7 9.1 8.7.2 3.1 0 6.2 0 10.2h7.3c34.6 0 69 .1 103.5 0 7.1 0 13 1.8 17.7 7.4 1.1 1.2 3.4 1.9 5.2 1.9 8.3.2 16.6.1 24.9.1 5.3-.1 9.3 1.7 11.2 7.1.4 1.1 2.2 2.1 3.5 2.4 2.1.4 4.4 0 6.6.2 5.1.4 8.7 4 9 8.7.2 4.7-3.1 9-8.1 9.7-3.2.6-6.5.3-10.3.6v18.7c3.1 0 6-.1 8.9 0 5.4.2 9.2 3.9 9.5 8.9.2 5.1-3.7 9.3-9.2 9.9-1.3.1-2.5.1-3.9 0-3.3-.2-5.8 0-7 4.1-1.3 4.1-5.2 5.3-9.5 5.2-8.5-.1-16.9-.2-25.5.1-1.9 0-4.3 1-5.6 2.3-4.7 5.2-10.4 7.2-17.3 7.2-34.1-.1-68.3 0-102.4 0h-8.4v9c1.9.1 3.7.3 5.4.3h223.2c2.2 0 4.4-.1 6.6 0 6.8.4 10 3.8 10.3 10.5.1 2.5 0 5.1 0 8.4 8.5 0 16.6.2 24.6-.1 5.6-.2 10.1 1.3 13.1 6.2v63.1c-3 4.9-7.3 6.8-13 6.5-8.1-.3-16.2-.1-24.8-.1v137.2c0 11.2-2.7 13.8-14.1 13.8H210.9c-1.7 0-3.2.1-5.2.2v9.3h25c9.1 0 12.4 3.2 12.4 12.2v32.7c-.1 8.4-3.4 11.6-11.8 11.7h-25.9v7.5c-.1 7-3.8 11.3-9.4 11.3-5.9 0-9.4-4.1-9.4-11.2-.1-22.4 0-44.6 0-67v-5.3c-6.2-1.8-12.7-1.8-16.1-5.1-3.1-3.1-2.9-9.6-4.2-15.4h-28c-14.6 0-29.1.2-43.7-.1-3.4-.1-7.3-1.2-10.2-3.2-20.7-14.5-41.2-29.2-61.8-44-2.3-1.7-4.2-4-6.3-6 .2-33.3.2-66.9.2-100.5zm510.1-53.3h-245v207h245v-207zm-339.7 207h74.9V211h-74.9v207.1zM167.2 230c-1-.2-1.8-.4-2.4-.4-22.4 0-44.6-.1-67 .1-2 0-4.3 1-6 2.2-17.7 12.5-35.5 25.1-53 38-1.8 1.3-3.3 4.4-3.3 6.6-.2 25.3-.1 50.5-.2 75.8 0 3.3 1 5.3 3.8 7.2 17.5 12.3 34.8 24.9 52.3 37.1 2.3 1.7 5.6 2.7 8.5 2.7 20.5.2 41 .1 61.5.1h5.9v-18.9h-54.7c-7.4 0-10.9-3.4-10.9-10.9-.1-5.6 0-11.3 0-17.6H66.3c-8.7 0-12-3.2-12-12.1v-50.4c0-10.2 2.9-13.1 13.2-13.2h33.2c.4-1 .8-1.3.8-1.7.1-5.3.1-10.7.2-16.1.1-7.2 3.3-10.3 10.5-10.5 3.5-.1 7 0 10.5 0h44.5v-18zm133-66.9h112.6v-56H300.2v56zM73.4 333h27.7v-37.1H73.4V333zm93.9 28.6v-18.4h-46.5v18.4h46.5zm-46.4-93.8V286h46.4v-18.2h-46.4zm-.2 55.8h46.6v-17.9h-46.6v17.9zm330-170v-37.1h-17.9v37.1h17.9zM205.9 163H243v-17.9h-37.1V163zm340.3 66.9V267h18.1v-37.1h-18.1zM224 484.5v-18.4h-17.8v18.4H224z" fill="#911a1d"/>
</svg>
