<svg xmlns="http://www.w3.org/2000/svg" viewBox="0 0 600 600">
  <path d="M453.8 308.7c-22.3 0-40.5 18.2-40.5 40.5s18.2 40.5 40.5 40.5 40.5-18.2 40.5-40.5c.1-22.3-18.1-40.5-40.5-40.5zM85.5 398.5v-90.2c0-15.7 12.8-28.6 28.6-28.6h34c15.7 0 28.6 12.8 28.6 28.6v90.2c0 2.7-.4 5.4-1.2 7.9h155.9V206.2h-246c-8.9 0-16 7.2-16 16v168.1c0 8.9 7.2 16 16 16h1.3c-.7-2.5-1.2-5.1-1.2-7.8zM520.8 363h8.5c-.1-.8-.1-1.7-.1-2.4 0-13 7.8-24.1 19-29.1-.9-6-2.2-12.6-3.8-20-6.3-30.1-12.6-47-16-52.5H507l13.7 99.5v.7c.2 1.4.2 2.7.1 3.8zM27.4 325.1l18.9 11.2v-56.1l-18.9 9.7v35.2zm426.4 4.3c-11 0-20 9-20 20s9 20 20 20 20-9 20-20c0-11.2-8.9-20-20-20zm107.1 20.2c-6 0-11 5-11 11s5 11 11 11 11-5 11-11c-.1-6.1-5-11-11-11zm31.5 11c0 17.5-14.2 31.7-31.7 31.7-8.4 0-16-3.3-21.6-8.6h-23.8c-12.5 24.3-44.2 33.7-74.3 33.7h-.4c-10.9 0-20.4-2.4-28.6-6.3-5.8 7-14.5 11.5-24.3 11.5-3.2 0-6.3-.5-9.2-1.4-5.7 3.7-12.5 5.9-19.9 5.9H85.4c-20.2 0-36.6-16.4-36.6-36.6v-28.6l-42-25v-59.7l41.9-21.5v-33.6c0-20.2 16.4-36.6 36.6-36.6h273.4c9.7 0 18.4 3.8 25 9.9 9.3-16.2 26.9-27.1 47-27.1h9.7c13.7 0 27.6 5.8 39.2 16.4 10.3 9.3 18.2 22 21.9 34.6l.2.7.1.7 2.5 17.7H532c9.8 0 15.1 10.2 19.1 20.1 3.3 8.4 6.9 20 10.2 33.7 3.1 12.5 5.7 25.8 7.6 37.7 13.6 3.7 23.5 16 23.5 30.7zm-215.6 30.3c0 6 5 11 11 11s11-5 11-11-5-11-11-11c-6.1-.1-11 4.9-11 11zm21-145.9c0-6-5-11-11-11s-11 5-11 11 5 11 11 11 11-4.9 11-11zM114.1 406.4h34c4.4 0 7.9-3.5 7.9-7.9v-90.2c0-4.4-3.5-7.9-7.9-7.9h-34c-4.4 0-7.9 3.5-7.9 7.9v90.2c0 4.4 3.5 7.9 7.9 7.9zm227.7 14.4zm0 0" fill="#911a1d"/>
</svg>
